<?xml version="1.0" standalone="no"?><!DOCTYPE svg PUBLIC "-//W3C//DTD SVG 1.1//EN" "http://www.w3.org/Graphics/SVG/1.1/DTD/svg11.dtd"><svg class="icon" width="200px" height="200.00px" viewBox="0 0 1024 1024" version="1.1" xmlns="http://www.w3.org/2000/svg"><path fill="#34BFA3" d="M924 0H100C45 0 0 45 0 100v824c0 55 45 100 100 100h824c55 0 100-45 100-100V100c0-55-45-100-100-100z m55 924c0 14.58-5.75 28.36-16.19 38.81S938.58 979 924 979H100c-14.58 0-28.36-5.75-38.81-16.19S45 938.58 45 924V315h934v609zM45 270V100c0-14.58 5.75-28.36 16.19-38.81C71.64 50.75 85.42 45 100 45h824c14.58 0 28.36 5.75 38.81 16.19C973.25 71.64 979 85.42 979 100v170H45z"  /><path fill="#34BFA3" d="M157.5 157.5m-22.5 0a22.5 22.5 0 1 0 45 0 22.5 22.5 0 1 0-45 0Z"  /><path fill="#34BFA3" d="M292.5 157.5m-22.5 0a22.5 22.5 0 1 0 45 0 22.5 22.5 0 1 0-45 0Z"  /><path fill="#34BFA3" d="M427.5 157.5m-22.5 0a22.5 22.5 0 1 0 45 0 22.5 22.5 0 1 0-45 0Z"  /><path fill="#34BFA3" d="M183.19 536.76h82.04c50.9 0 89.74 13.13 89.74 54.29 0 20.29-12.72 41.17-33.82 47.73v1.49c26.79 5.67 46.54 22.38 46.54 52.21 0 44.45-41.52 65.04-96.1 65.04h-88.4V536.76z m78.35 89.8c31.47 0 45.2-11.34 45.2-28.94 0-19.39-14.73-27.15-44.53-27.15h-29.47v56.08h28.8z m5.69 96.95c33.82 0 52.23-10.74 52.23-33.71 0-21.48-18.08-30.43-52.23-30.43h-34.49v64.14h34.49zM409.88 658.18V536.76h49.56v125.3c0 45.94 17.75 61.46 46.88 61.46 29.47 0 48.22-15.51 48.22-61.46v-125.3h47.55v121.42c0 73.39-35.16 103.52-95.76 103.52-60.29 0-96.45-30.13-96.45-103.52zM649.28 648.04c0-72.79 52.9-115.45 118.87-115.45 35.83 0 60.61 13.72 76.68 28.34l-26.45 28.04c-12.05-10.44-26.12-18.5-48.55-18.5-41.19 0-69.98 28.64-69.98 76.07 0 48.03 24.78 76.97 73.33 76.97 12.05 0 24.11-2.98 31.14-8.35V671.6h-43.86v-36.1h88.06v99.64c-16.74 14.62-45.87 26.55-80.36 26.55-67.65 0.01-118.88-39.97-118.88-113.65z"  /></svg>