<?xml version="1.0" standalone="no"?><!DOCTYPE svg PUBLIC "-//W3C//DTD SVG 1.1//EN" "http://www.w3.org/Graphics/SVG/1.1/DTD/svg11.dtd"><svg class="icon" width="200px" height="200.00px" viewBox="0 0 1024 1024" version="1.1" xmlns="http://www.w3.org/2000/svg"><path fill="#40c9c6" d="M560 224h-96l10.464 416h75.072L560 224z m-14.144 493.984A46.464 46.464 0 0 0 512 704c-13.12 0-24.448 4.672-33.856 13.984A46.048 46.048 0 0 0 464 752c0 13.6 4.704 24.992 14.144 34.208 9.408 9.184 20.704 13.792 33.856 13.792 13.12 0 24.448-4.608 33.856-13.792 9.44-9.216 14.144-20.608 14.144-34.208 0-13.344-4.704-24.704-14.144-34.016zM512 32C246.912 32 32 246.912 32 512c0 265.088 214.912 480 480 480 265.088 0 480-214.912 480-480 0-265.088-214.912-480-480-480z m0 64c229.76 0 416 186.24 416 416s-186.24 416-416 416S96 741.76 96 512 282.24 96 512 96z" /></svg>